<?xml version="1.0" standalone="no"?>
<!DOCTYPE svg PUBLIC "-//W3C//DTD SVG 20010904//EN"
 "http://www.w3.org/TR/2001/REC-SVG-20010904/DTD/svg10.dtd">
<svg version="1.0" xmlns="http://www.w3.org/2000/svg"
 width="512.000000pt" height="512.000000pt" viewBox="0 0 512.000000 512.000000"
 preserveAspectRatio="xMidYMid meet">

<g transform="translate(0.000000,512.000000) scale(0.100000,-0.100000)"
fill="#00000" stroke="none">
<path d="M1640 4618 c-66 -45 -75 -67 -78 -193 l-4 -114 -82 -46 c-353 -198
-639 -548 -770 -945 -132 -396 -155 -950 -60 -1419 139 -692 635 -1206 1305
-1354 231 -52 326 -61 604 -62 271 0 343 6 560 50 357 72 648 228 897 482 226
230 379 515 452 844 51 230 61 333 61 639 0 305 -12 416 -69 670 -103 455
-410 869 -811 1094 l-83 47 -4 114 c-2 96 -6 118 -24 142 -54 72 -140 94 -213
52 -54 -31 -74 -64 -79 -131 -4 -48 -7 -58 -21 -54 -51 16 -236 48 -347 61
-256 30 -604 15 -858 -35 -55 -12 -109 -23 -118 -26 -16 -5 -18 2 -18 44 0
124 -142 206 -240 140z m1270 -453 c63 -10 162 -29 220 -44 l105 -26 5 -105
c3 -58 11 -115 17 -126 21 -36 71 -73 109 -80 77 -14 173 45 189 116 4 16 9
30 13 30 15 0 154 -116 218 -182 280 -290 408 -647 421 -1179 16 -608 -120
-1023 -436 -1340 -297 -296 -659 -422 -1211 -422 -465 0 -795 92 -1070 299
-168 127 -295 280 -392 471 -119 233 -174 482 -185 838 -11 376 48 720 167
969 86 182 239 372 394 490 40 31 75 56 78 56 4 0 9 -14 13 -30 16 -71 112
-130 189 -116 38 7 88 44 109 80 6 11 14 68 17 126 l5 105 65 17 c89 24 267
56 375 67 130 14 450 6 585 -14z"/>
<path d="M2480 2908 c-70 -48 -75 -62 -78 -239 l-3 -159 -137 0 c-75 0 -153
-5 -174 -10 -49 -14 -104 -76 -113 -129 -9 -53 25 -126 74 -158 32 -21 45 -23
192 -23 l158 0 3 -164 c3 -180 7 -192 72 -240 39 -29 133 -29 172 0 65 48 69
60 72 240 l3 164 155 0 c168 0 194 6 233 56 52 66 47 155 -12 212 -46 44 -81
52 -239 52 l-137 0 -3 159 c-3 143 -5 162 -24 188 -35 48 -82 73 -134 73 -32
0 -57 -7 -80 -22z"/>
</g>
</svg>
