<?xml version="1.0" standalone="no"?>
<!DOCTYPE svg PUBLIC "-//W3C//DTD SVG 20010904//EN"
 "http://www.w3.org/TR/2001/REC-SVG-20010904/DTD/svg10.dtd">
<svg version="1.0" xmlns="http://www.w3.org/2000/svg"
 width="512.000000pt" height="512.000000pt" viewBox="0 0 512.000000 512.000000"
 preserveAspectRatio="xMidYMid meet">

<g transform="translate(0.000000,512.000000) scale(0.100000,-0.100000)"
fill="#000000" stroke="none">
<path d="M1002 5110 c-198 -42 -488 -169 -670 -293 -141 -97 -235 -235 -235
-347 0 -51 6 -67 90 -215 121 -214 185 -320 344 -575 202 -322 386 -659 418
-765 7 -22 14 -46 17 -53 2 -8 26 13 56 50 222 268 489 400 840 415 l138 6
-30 51 c-74 125 -106 207 -244 634 -233 718 -314 940 -366 1004 -49 59 -124
90 -228 94 -48 2 -106 -1 -130 -6z"/>
<path d="M4844 3435 c3 -16 13 -64 22 -105 20 -92 14 -202 -16 -289 -51 -154
-168 -292 -439 -524 -293 -250 -340 -309 -329 -410 13 -114 71 -175 325 -344
237 -157 302 -213 339 -289 43 -88 22 -166 -70 -256 -116 -115 -246 -180 -586
-297 -259 -89 -330 -117 -437 -175 -148 -81 -119 -157 94 -246 102 -43 165
-60 413 -116 199 -44 370 -100 438 -141 19 -12 30 -23 25 -26 -20 -12 -199
-47 -318 -63 -105 -13 -179 -16 -395 -11 -242 5 -388 16 -830 65 l-65 7 -27
185 c-38 266 -43 369 -24 532 9 75 16 163 16 196 0 53 -4 64 -46 123 -141 199
-358 580 -560 984 -82 163 -145 279 -161 292 -63 52 -219 63 -358 24 -200 -55
-349 -171 -379 -293 -5 -21 46 -183 210 -665 258 -762 249 -738 277 -756 12
-8 69 -31 125 -52 232 -85 510 -298 708 -541 68 -83 106 -115 120 -101 3 3
-107 256 -244 563 -175 392 -255 560 -268 565 -27 10 -71 59 -83 92 -6 16 -11
48 -11 73 0 52 33 94 73 94 81 0 166 -147 128 -219 -7 -13 48 -146 225 -546
129 -290 234 -532 234 -537 0 -4 -6 -8 -14 -8 -46 0 -12 -56 55 -90 87 -45
199 -69 429 -95 364 -40 632 -43 895 -10 213 27 490 80 522 101 56 35 33 110
-54 178 -128 101 -278 159 -578 221 -160 33 -395 101 -395 114 0 3 98 46 218
95 276 113 570 256 691 337 290 194 357 371 203 541 -53 59 -127 106 -312 198
-177 88 -260 143 -291 193 -68 113 -14 203 230 385 145 108 189 148 251 232
59 80 103 171 126 260 40 157 -7 449 -92 563 l-16 22 6 -30z"/>
<path d="M1830 3243 c-302 -32 -586 -186 -769 -417 l-50 -63 19 -69 c10 -38
32 -121 50 -184 34 -126 60 -169 119 -200 21 -10 54 -38 72 -61 34 -43 86 -72
153 -85 37 -6 38 -6 30 17 -12 38 -8 111 9 150 40 97 184 198 367 257 186 60
314 50 398 -31 l34 -32 23 29 c44 55 55 125 30 197 -9 24 -13 55 -10 69 8 38
-6 69 -83 172 -38 51 -93 129 -123 173 l-54 80 -90 1 c-50 1 -106 -1 -125 -3z"/>
</g>
</svg>
